<svg width="31" height="31" viewBox="0 0 31 31" fill="none" xmlns="http://www.w3.org/2000/svg">
<rect y="3.80646e-07" width="30.3529" height="30.3529" rx="6" fill="#503217"/>
<g clip-path="url(#clip0_1678_86)">
<path d="M21.9088 12.1595C21.8764 11.4248 21.7576 10.9197 21.5874 10.4821C21.4118 10.0175 21.1417 9.60153 20.7878 9.25576C20.442 8.9046 20.0233 8.63174 19.5641 8.4589C19.1239 8.2887 18.6214 8.16989 17.8867 8.1375C17.1465 8.10236 16.9116 8.09424 15.0342 8.09424C13.1569 8.09424 12.9219 8.10236 12.1845 8.13476C11.4497 8.16715 10.9446 8.28607 10.5071 8.45616C10.0424 8.63174 9.62643 8.90186 9.28066 9.25576C8.9295 9.60153 8.65674 10.0202 8.4838 10.4794C8.31361 10.9197 8.1948 11.4221 8.1624 12.1568C8.12727 12.897 8.11914 13.132 8.11914 15.0093C8.11914 16.8867 8.12727 17.1216 8.15966 17.8591C8.19205 18.5938 8.31097 19.0989 8.48117 19.5366C8.65674 20.0012 8.9295 20.4171 9.28066 20.7629C9.62643 21.114 10.0451 21.3869 10.5043 21.5597C10.9446 21.7299 11.447 21.8487 12.1818 21.8811C12.9192 21.9136 13.1542 21.9217 15.0316 21.9217C16.9089 21.9217 17.1439 21.9136 17.8813 21.8811C18.6161 21.8487 19.1212 21.7299 19.5587 21.5597C20.488 21.2005 21.2227 20.4657 21.582 19.5366C21.7521 19.0963 21.871 18.5938 21.9034 17.8591C21.9358 17.1216 21.9439 16.8867 21.9439 15.0093C21.9439 13.132 21.9412 12.897 21.9088 12.1595ZM20.6636 17.8051C20.6338 18.4804 20.5204 18.845 20.4259 19.0881C20.1935 19.6905 19.7154 20.1686 19.113 20.401C18.8699 20.4955 18.5026 20.6089 17.83 20.6386C17.1006 20.6711 16.8819 20.6791 15.037 20.6791C13.192 20.6791 12.9705 20.6711 12.2439 20.6386C11.5686 20.6089 11.2039 20.4955 10.9608 20.401C10.661 20.2902 10.3882 20.1146 10.1667 19.885C9.93707 19.6608 9.76149 19.3906 9.6507 19.0909C9.55616 18.8478 9.44273 18.4804 9.41308 17.8078C9.38058 17.0785 9.37256 16.8596 9.37256 15.0147C9.37256 13.1698 9.38058 12.9483 9.41308 12.2217C9.44273 11.5464 9.55616 11.1817 9.6507 10.9386C9.76149 10.6388 9.93707 10.366 10.1694 10.1444C10.3935 9.91481 10.6637 9.73923 10.9635 9.62854C11.2066 9.534 11.574 9.42057 12.2466 9.39082C12.9759 9.35842 13.1948 9.3503 15.0396 9.3503C16.8873 9.3503 17.106 9.35842 17.8327 9.39082C18.508 9.42057 18.8727 9.534 19.1158 9.62854C19.4155 9.73923 19.6884 9.91481 19.9099 10.1444C20.1395 10.3686 20.3151 10.6388 20.4259 10.9386C20.5204 11.1817 20.6338 11.549 20.6636 12.2217C20.696 12.951 20.7041 13.1698 20.7041 15.0147C20.7041 16.8596 20.696 17.0757 20.6636 17.8051Z" fill="#F2F2F2"/>
<path d="M15.0325 11.457C13.0715 11.457 11.4805 13.048 11.4805 15.0091C11.4805 16.9702 13.0715 18.5612 15.0325 18.5612C16.9937 18.5612 18.5846 16.9702 18.5846 15.0091C18.5846 13.048 16.9937 11.457 15.0325 11.457ZM15.0325 17.3133C13.7603 17.3133 12.7284 16.2814 12.7284 15.0091C12.7284 13.7368 13.7603 12.705 15.0325 12.705C16.3049 12.705 17.3367 13.7368 17.3367 15.0091C17.3367 16.2814 16.3049 17.3133 15.0325 17.3133Z" fill="#F2F2F2"/>
<path d="M19.432 11.6891C19.432 12.1471 19.0607 12.5184 18.6027 12.5184C18.1447 12.5184 17.7734 12.1471 17.7734 11.6891C17.7734 11.2311 18.1447 10.8599 18.6027 10.8599C19.0607 10.8599 19.432 11.2311 19.432 11.6891Z" fill="#F2F2F2"/>
</g>
<defs>
<clipPath id="clip0_1678_86">
<rect width="13.8275" height="13.8275" fill="white" transform="translate(8.09375 8.09424)"/>
</clipPath>
</defs>
</svg>
