<svg width="20" height="20" viewBox="0 0 20 20" fill="none" xmlns="http://www.w3.org/2000/svg">
<path d="M15 5.83337C15.6454 5.96719 16.1323 6.19053 16.5237 6.56328C17.5 7.49322 17.5 8.98996 17.5 11.9834C17.5 14.9768 17.5 16.4735 16.5237 17.4035C15.5474 18.3334 13.976 18.3334 10.8333 18.3334H9.16667C6.02397 18.3334 4.45262 18.3334 3.47631 17.4035C2.5 16.4735 2.5 14.9768 2.5 11.9834C2.5 8.98996 2.5 7.49322 3.47631 6.56328C3.86765 6.19053 4.35458 5.96719 5 5.83337" stroke="#141414" stroke-width="1.25" stroke-linecap="round"/>
<path d="M10.0211 1.66706L10 11.6666M12.5 4.10735C12.5 4.10735 11.1276 2.45027 10.3723 1.81253C10.2635 1.7206 10.1426 1.6721 10.0211 1.66706C9.88558 1.66145 9.74925 1.70989 9.62775 1.8124C8.87242 2.45001 7.5 4.10735 7.5 4.10735" stroke="#141414" stroke-width="1.25" stroke-linecap="round" stroke-linejoin="round"/>
</svg>
