<svg width="25" height="25" viewBox="0 0 25 25" fill="none" xmlns="http://www.w3.org/2000/svg">
<path d="M9.89648 19.792C9.89648 20.6549 9.19693 21.3545 8.33398 21.3545C7.47104 21.3545 6.77148 20.6549 6.77148 19.792C6.77148 18.929 7.47104 18.2295 8.33398 18.2295C9.19693 18.2295 9.89648 18.929 9.89648 19.792Z" stroke="#503217" stroke-width="1.5" stroke-linecap="round" stroke-linejoin="round"/>
<path d="M18.2298 19.792C18.2298 20.6549 17.5303 21.3545 16.6673 21.3545C15.8044 21.3545 15.1048 20.6549 15.1048 19.792C15.1048 18.929 15.8044 18.2295 16.6673 18.2295C17.5303 18.2295 18.2298 18.929 18.2298 19.792Z" stroke="#503217" stroke-width="1.5" stroke-linecap="round" stroke-linejoin="round"/>
<path d="M3.125 2.89551C2.71079 2.89551 2.375 3.23129 2.375 3.64551C2.375 4.05972 2.71079 4.39551 3.125 4.39551V2.89551ZM19.1933 13.9949L18.5261 13.6524L19.1933 13.9949ZM21.1936 10.0991L20.5264 9.75655L21.1936 10.0991ZM8.20833 6.47884H18.5248V4.97884H8.20833V6.47884ZM20.5264 9.75655L18.5261 13.6524L19.8605 14.3375L21.8608 10.4417L20.5264 9.75655ZM16.5245 14.8747H8.20833V16.3747H16.5245V14.8747ZM5.95833 12.6247V11.9788H4.45833V12.6247H5.95833ZM5.95833 11.9788V8.72884H4.45833V11.9788H5.95833ZM5.95833 11.9788V5.72884H4.45833V11.9788H5.95833ZM8.20833 14.8747C6.96569 14.8747 5.95833 13.8673 5.95833 12.6247H4.45833C4.45833 14.6957 6.13726 16.3747 8.20833 16.3747V14.8747ZM18.5261 13.6524C18.1408 14.4028 17.3681 14.8747 16.5245 14.8747V16.3747C17.9305 16.3747 19.2183 15.5882 19.8605 14.3375L18.5261 13.6524ZM18.5248 6.47884C20.208 6.47884 21.2952 8.25924 20.5264 9.75655L21.8608 10.4417C23.1421 7.94617 21.3301 4.97884 18.5248 4.97884V6.47884ZM5.95833 5.72884C5.95833 4.16404 4.68981 2.89551 3.125 2.89551V4.39551C3.86138 4.39551 4.45833 4.99246 4.45833 5.72884H5.95833ZM8.20833 4.97884C6.13727 4.97884 4.45833 6.65777 4.45833 8.72884H5.95833C5.95833 7.4862 6.96569 6.47884 8.20833 6.47884V4.97884Z" fill="#503217"/>
</svg>
