<svg width="19" height="18" viewBox="0 0 19 18" fill="none" xmlns="http://www.w3.org/2000/svg">
<path d="M8.86133 0.845947C9.011 0.38529 9.66282 0.385294 9.8125 0.845947L11.3311 5.5188C11.5319 6.13683 12.108 6.55591 12.7578 6.55591H17.6719C18.1562 6.55591 18.3576 7.1755 17.9658 7.46021L13.9902 10.3489C13.4645 10.7308 13.2446 11.4076 13.4453 12.0256L14.9639 16.6995C15.1135 17.16 14.5862 17.5434 14.1943 17.259L10.2188 14.3704C9.69302 13.9884 8.98081 13.9884 8.45508 14.3704L4.47949 17.259C4.08766 17.5434 3.56031 17.16 3.70996 16.6995L5.22852 12.0256C5.42926 11.4076 5.20929 10.7308 4.68359 10.3489L0.708008 7.46021C0.316178 7.1755 0.517601 6.55591 1.00195 6.55591H5.91602C6.56585 6.55591 7.14196 6.13683 7.34277 5.5188L8.86133 0.845947Z" fill="#FFA439" stroke="black"/>
</svg>
